<svg width="36" height="36" viewBox="0 0 36 36" fill="none" xmlns="http://www.w3.org/2000/svg">
<path d="M17.9998 0.857178C27.4675 0.857178 35.1426 8.5323 35.1426 18C35.1426 27.4678 27.4675 35.1429 17.9998 35.1429C8.53205 35.1429 0.856934 27.4678 0.856934 18C0.856934 8.5323 8.53205 0.857178 17.9998 0.857178ZM17.9998 3.71432C10.11 3.71432 3.71408 10.1103 3.71408 18C3.71408 25.8898 10.11 32.2857 17.9998 32.2857C25.8896 32.2857 32.2855 25.8898 32.2855 18C32.2855 10.1103 25.8896 3.71432 17.9998 3.71432ZM24.1284 12.7C24.6863 12.1421 25.599 12.1421 26.1569 12.7C26.7148 13.2579 26.7148 14.1707 26.1569 14.7286L16.1528 24.7245C15.5949 25.2824 14.6904 25.2824 14.1325 24.7245L9.13249 19.7245C8.5746 19.1666 8.5746 18.2621 9.13249 17.7042C9.69039 17.1463 10.5949 17.1463 11.1528 17.7042L15.1426 21.694L24.1284 12.7Z" fill="#3F8AE0"/>
</svg>
