<svg width="51" height="50" viewBox="0 0 51 50" fill="none" xmlns="http://www.w3.org/2000/svg">
<path d="M25.5 45.2632C36.691 45.2632 45.7632 36.191 45.7632 25C45.7632 13.809 36.691 4.73684 25.5 4.73684C14.309 4.73684 5.23684 13.809 5.23684 25C5.23684 36.191 14.309 45.2632 25.5 45.2632ZM25.5 50C11.6929 50 0.5 38.8071 0.5 25C0.5 11.1929 11.6929 0 25.5 0C39.3071 0 50.5 11.1929 50.5 25C50.5 38.8071 39.3071 50 25.5 50ZM25.5 19.0693C23.6833 19.0693 22.2105 17.5966 22.2105 15.7798C22.2105 13.9631 23.6833 12.4904 25.5 12.4904C27.3167 12.4904 28.7895 13.9631 28.7895 15.7798C28.7895 17.5966 27.3167 19.0693 25.5 19.0693ZM23.1316 26.1247C23.1316 24.7715 24.192 23.6746 25.5 23.6746C26.808 23.6746 27.8684 24.7715 27.8684 26.1247V35.6982C27.8684 37.0513 26.808 38.1483 25.5 38.1483C24.192 38.1483 23.1316 37.0513 23.1316 35.6982V26.1247Z" fill="url(#paint0_linear)"/>
<defs>
<linearGradient id="paint0_linear" x1="-24.5" y1="25" x2="25.5" y2="75" gradientUnits="userSpaceOnUse">
<stop stop-color="#FFB73D"/>
<stop offset="1" stop-color="#FFA000"/>
</linearGradient>
</defs>
</svg>
