<svg width="48" height="48" viewBox="0 0 48 48" fill="none" xmlns="http://www.w3.org/2000/svg">
<path d="M31.36 0C44.8 0 48 3.2 48 16.64V31.36C48 44.8 44.8 48 31.36 48H16.64C3.2 48 0 44.8 0 31.36V16.64C0 3.2 3.2 0 16.64 0H31.36Z" fill="#3F8AE0"/>
<path d="M12.5001 15H9.00006C8.00006 15 7.80005 15.4708 7.80005 15.9899C7.80005 16.9169 8.98663 21.5148 13.325 27.5959C16.2171 31.7488 20.2921 34 24.0001 34C26.2248 34 26.5001 33.5 26.5001 32.6388V29.5C26.5001 28.5 26.7108 28.3004 27.4153 28.3004C27.9344 28.3004 28.8244 28.56 30.9009 30.5623C33.274 32.9354 33.6652 34 35.0001 34H38.5001C39.5001 34 40.0001 33.5 39.7116 32.5133C39.396 31.5299 38.2629 30.103 36.7595 28.4117C35.9437 27.4476 34.7201 26.4094 34.3493 25.8902C33.8302 25.2228 33.9785 24.9261 34.3493 24.3329L34.4116 24.2446C34.939 23.495 38.6453 18.1802 39.0585 16.2866C39.2809 15.5449 39.0585 15 38.0001 15H34.5001C33.6101 15 33.1999 15.4708 32.9773 15.9899C32.9773 15.9899 31.1975 20.3282 28.676 23.1463C27.8603 23.962 27.4895 24.2216 27.0445 24.2216C26.8221 24.2216 26.5 23.962 26.5 23.2205V16.2866C26.5 15.3966 26.2417 15 25.5001 15H20.0001C19.4439 15 19.1095 15.413 19.1095 15.8045C19.1095 16.6481 20.3701 16.8427 20.5001 19.2158V24.37C20.5001 25.5 20.296 25.7049 19.851 25.7049C18.6645 25.7049 15.7783 21.3471 14.0665 16.3607C13.731 15.3915 13.3946 15 12.5001 15Z" fill="white"/>
</svg>
