<svg width="55" height="17" viewBox="0 0 55 17" fill="none" xmlns="http://www.w3.org/2000/svg">
<path d="M6.7793 13H4.62598L0.0996094 0.317383H2.23535L5.68945 10.7852H5.74219L9.20508 0.317383H11.3057L6.7793 13ZM14.6807 13H12.7119V0.317383H14.6807V6.35547H14.7598L20.0596 0.317383H22.3975L17.3701 5.93359L22.8193 13H20.376L15.9814 7.28711L14.6807 8.77246V13ZM27.7412 0.317383H32.4961C33.7266 0.317383 34.7285 0.704102 35.502 1.47754C36.2812 2.25098 36.6709 3.25293 36.6709 4.4834C36.6709 5.71973 36.2754 6.72754 35.4844 7.50684C34.6992 8.28027 33.6826 8.66699 32.4346 8.66699H29.71V13H27.7412V0.317383ZM29.71 1.97852V7.01465H31.9688C32.8242 7.01465 33.4863 6.79492 33.9551 6.35547C34.4238 5.91602 34.6582 5.29492 34.6582 4.49219C34.6582 3.69531 34.4238 3.07715 33.9551 2.6377C33.4922 2.19824 32.833 1.97852 31.9775 1.97852H29.71ZM40.6611 11.6553C41.3291 11.6553 41.8887 11.4531 42.3398 11.0488C42.7969 10.6387 43.0254 10.1348 43.0254 9.53711V8.80762L40.749 8.94824C40.1807 8.98926 39.7412 9.12988 39.4307 9.37012C39.126 9.60449 38.9736 9.9209 38.9736 10.3193C38.9736 10.7236 39.126 11.0488 39.4307 11.2949C39.7412 11.5352 40.1514 11.6553 40.6611 11.6553ZM40.1338 13.1582C39.2256 13.1582 38.4844 12.9004 37.9102 12.3848C37.3418 11.8691 37.0576 11.1982 37.0576 10.3721C37.0576 9.56348 37.3564 8.92188 37.9541 8.44727C38.5518 7.9668 39.3984 7.69727 40.4941 7.63867L43.0254 7.48926V6.77734C43.0254 6.26172 42.8613 5.86035 42.5332 5.57324C42.2051 5.28027 41.751 5.13379 41.1709 5.13379C40.6318 5.13379 40.1924 5.25391 39.8525 5.49414C39.5186 5.73438 39.3076 6.06543 39.2197 6.4873H37.4268C37.4795 5.63184 37.8486 4.93457 38.5342 4.39551C39.2197 3.85645 40.1221 3.58691 41.2412 3.58691C42.3604 3.58691 43.251 3.8623 43.9131 4.41309C44.5811 4.96387 44.915 5.70215 44.915 6.62793V13H43.0957V11.4795H43.0518C42.7881 11.9893 42.3867 12.3965 41.8477 12.7012C41.3145 13.0059 40.7432 13.1582 40.1338 13.1582ZM47.6748 16.4453C47.3174 16.4453 47.0596 16.4307 46.9014 16.4014V14.8633C46.9951 14.8867 47.2002 14.8984 47.5166 14.8984C47.9619 14.8984 48.3105 14.7959 48.5625 14.5908C48.8145 14.3916 49.0137 14.0547 49.1602 13.5801C49.1602 13.5742 49.1895 13.4775 49.248 13.29L49.3271 13.0088L45.9873 3.75391H48.0439L50.3906 11.2773H50.417L52.7637 3.75391H54.7676L51.2959 13.4834C50.9033 14.6025 50.4434 15.376 49.916 15.8037C49.3887 16.2314 48.6416 16.4453 47.6748 16.4453Z" fill="white"/>
</svg>
