<svg width="17" height="5" viewBox="0 0 17 5" fill="none" xmlns="http://www.w3.org/2000/svg">
<path d="M2.79967 0.571411C3.86479 0.571411 4.72824 1.43486 4.72824 2.49998C4.72824 3.5651 3.86479 4.42856 2.79967 4.42856C1.73454 4.42856 0.871094 3.5651 0.871094 2.49998C0.871094 1.43486 1.73454 0.571411 2.79967 0.571411ZM8.79967 0.571411C9.86479 0.571411 10.7282 1.43486 10.7282 2.49998C10.7282 3.5651 9.86479 4.42856 8.79967 4.42856C7.73454 4.42856 6.87109 3.5651 6.87109 2.49998C6.87109 1.43486 7.73454 0.571411 8.79967 0.571411ZM14.7997 0.571411C15.8648 0.571411 16.7282 1.43486 16.7282 2.49998C16.7282 3.5651 15.8648 4.42856 14.7997 4.42856C13.7345 4.42856 12.8711 3.5651 12.8711 2.49998C12.8711 1.43486 13.7345 0.571411 14.7997 0.571411Z" fill="white"/>
</svg>
