<svg width="37" height="40" viewBox="0 0 37 40" fill="none" xmlns="http://www.w3.org/2000/svg">
<path d="M24.9318 10.5682C24.9318 6.98905 22.0337 4.09091 18.4546 4.09091C14.8754 4.09091 11.9773 6.98905 11.9773 10.5682C11.9773 14.1473 14.8754 17.0455 18.4546 17.0455C22.0337 17.0455 24.9318 14.1473 24.9318 10.5682ZM29.0227 10.5682C29.0227 16.4067 24.293 21.1364 18.4546 21.1364C12.6161 21.1364 7.88637 16.4067 7.88637 10.5682C7.88637 4.7297 12.6161 0 18.4546 0C24.293 0 29.0227 4.7297 29.0227 10.5682ZM4.59091 34.3831C4.59091 36.1305 4.38462 35.9091 5.35294 35.9091H31.5562C32.5245 35.9091 32.3182 36.1305 32.3182 34.3831C32.3182 30.0818 26.0041 27.5 18.4546 27.5C10.905 27.5 4.59091 30.0818 4.59091 34.3831ZM0.5 34.3831C0.5 26.8222 8.84725 23.4091 18.4546 23.4091C28.0619 23.4091 36.4091 26.8222 36.4091 34.3831C36.4091 38.3277 34.8511 40 31.5562 40H5.35294C2.05804 40 0.5 38.3277 0.5 34.3831Z" fill="#3F8AE0"/>
</svg>
