<svg width="45" height="42" viewBox="0 0 45 42" fill="none" xmlns="http://www.w3.org/2000/svg">
<path d="M36.8083 0C39.4829 0 40.4528 0.278477 41.4305 0.801398C42.4083 1.32432 43.1757 2.09169 43.6986 3.06946C44.2215 4.04724 44.5 5.0171 44.5 7.69166V24.5C44.5 25.3284 43.8284 26 43 26C42.1716 26 41.5 25.3284 41.5 24.5V12.999H3.5V27.1542C3.5 28.4079 3.62238 28.9124 3.85311 29.3734L3.9007 29.4653C4.16216 29.9542 4.54584 30.3378 5.03473 30.5993C5.49307 30.8444 5.94792 30.9821 7.10487 30.9984L7.34583 31L39.377 30.999L33.9393 25.5607C33.3536 24.9749 33.3536 24.0251 33.9393 23.4393C34.5251 22.8536 35.4749 22.8536 36.0607 23.4393L44.0607 31.4393C44.6464 32.0251 44.6464 32.9749 44.0607 33.5607L36.0607 41.5607C35.4749 42.1464 34.5251 42.1464 33.9393 41.5607C33.3536 40.9749 33.3536 40.0251 33.9393 39.4393L39.378 34H8.19166C5.5171 34 4.54724 33.7215 3.56946 33.1986C2.59169 32.6757 1.82432 31.9083 1.3014 30.9305C0.778477 29.9528 0.5 28.9829 0.5 26.3083V7.69166C0.5 5.0171 0.778477 4.04724 1.3014 3.06946C1.82432 2.09169 2.59169 1.32432 3.56946 0.801398C4.54724 0.278477 5.5171 0 8.19166 0H36.8083ZM37.6542 3H7.34583C6.00855 3 5.52362 3.13924 5.03473 3.4007C4.54584 3.66216 4.16216 4.04584 3.9007 4.53473C3.65558 4.99307 3.51788 5.44792 3.50163 6.60487L3.5 6.84583V9.999H41.5V6.84583C41.5 5.59213 41.3776 5.08757 41.1469 4.62656L41.0993 4.53473C40.8378 4.04584 40.4542 3.66216 39.9653 3.4007C39.4764 3.13924 38.9914 3 37.6542 3Z" fill="#3F8AE0"/>
</svg>
