<svg width="40" height="40" viewBox="0 0 40 40" fill="none" xmlns="http://www.w3.org/2000/svg">
<path d="M20 0C31.0457 0 40 8.9543 40 20C40 31.0457 31.0457 40 20 40C8.9543 40 0 31.0457 0 20C0 8.9543 8.9543 0 20 0ZM20 3.33333C10.7953 3.33333 3.33333 10.7953 3.33333 20C3.33333 29.2047 10.7953 36.6667 20 36.6667C29.2047 36.6667 36.6667 29.2047 36.6667 20C36.6667 10.7953 29.2047 3.33333 20 3.33333ZM20 26C21.2887 26 22.3333 27.0447 22.3333 28.3333C22.3333 29.622 21.2887 30.6667 20 30.6667C18.7113 30.6667 17.6667 29.622 17.6667 28.3333C17.6667 27.0447 18.7113 26 20 26ZM20.1227 10C20.5187 10 20.7673 10.0619 20.9846 10.1781C21.2018 10.2943 21.3724 10.4648 21.4886 10.6821C21.6048 10.8994 21.6667 11.148 21.6667 11.544V21.7894C21.6667 22.1854 21.6048 22.4339 21.4886 22.6512C21.3724 22.8685 21.2018 23.039 20.9846 23.1552C20.7673 23.2714 20.5187 23.3333 20.1227 23.3333H19.8773C19.4813 23.3333 19.2327 23.2714 19.0154 23.1552C18.7982 23.039 18.6276 22.8685 18.5114 22.6512C18.3952 22.4339 18.3333 22.1854 18.3333 21.7894V11.544C18.3333 11.148 18.3952 10.8994 18.5114 10.6821C18.6276 10.4648 18.7982 10.2943 19.0154 10.1781C19.2327 10.0619 19.4813 10 19.8773 10H20.1227Z" fill="#3F8AE0"/>
</svg>
